<?xml version="1.0" standalone="no"?>
<!DOCTYPE svg PUBLIC "-//W3C//DTD SVG 20010904//EN"
 "http://www.w3.org/TR/2001/REC-SVG-20010904/DTD/svg10.dtd">
<svg version="1.0" xmlns="http://www.w3.org/2000/svg"
 width="512.000000pt" height="512.000000pt" viewBox="0 0 512.000000 512.000000"
 preserveAspectRatio="xMidYMid meet">
<metadata>
Created by potrace 1.14, written by Peter Selinger 2001-2017
</metadata>
<g transform="translate(0.000000,512.000000) scale(0.100000,-0.100000)"
fill="#000000" stroke="none">
<path d="M2095 5110 c-39 -8 -96 -17 -165 -26 -67 -9 -68 -10 -59 -57 4 -23
10 -60 13 -82 4 -23 9 -52 11 -65 3 -14 7 -41 10 -60 5 -43 41 -265 55 -340 5
-30 19 -113 31 -185 11 -71 22 -141 25 -155 2 -14 9 -56 14 -95 6 -38 19 -122
30 -185 11 -63 22 -133 25 -155 4 -22 8 -47 10 -55 2 -8 7 -37 10 -65 3 -27 8
-59 10 -71 4 -20 2 -21 -152 -20 l-156 1 -43 115 c-24 63 -44 119 -44 123 0 5
-6 23 -14 40 -14 30 -76 201 -133 362 -13 39 -28 79 -33 90 -10 22 -217 586
-261 710 -18 50 -33 79 -41 77 -17 -4 -262 -93 -266 -97 -4 -3 23 -79 126
-360 39 -104 138 -374 220 -600 83 -225 155 -422 160 -436 l11 -26 -157 0
c-87 0 -163 4 -169 10 -7 5 -32 44 -55 86 -23 42 -96 173 -163 291 -67 118
-204 361 -305 540 -100 179 -185 328 -189 331 -4 5 -240 -119 -260 -137 -2 -2
42 -83 97 -181 55 -98 110 -196 122 -218 12 -22 30 -53 40 -70 46 -75 360
-639 360 -645 0 -4 -61 -7 -135 -7 -75 0 -138 -3 -141 -6 -8 -7 -42 -135 -59
-222 -8 -38 -16 -79 -19 -90 -16 -82 -43 -285 -53 -405 -15 -185 -8 -628 13
-775 19 -138 36 -243 44 -278 16 -71 23 -67 -128 -67 l-138 0 1 -677 c0 -373
3 -682 7 -688 4 -6 69 -10 167 -9 l161 1 0 -138 0 -139 150 0 150 0 0 138 0
139 1730 0 1730 0 0 -139 0 -138 150 0 150 0 0 139 0 138 158 1 c86 0 162 1
167 1 8 1 11 217 11 686 l0 685 -139 0 -139 0 6 33 c13 62 34 193 41 246 4 30
8 63 10 73 19 99 27 591 12 763 -12 143 -33 296 -63 460 -9 50 -54 229 -63
250 -8 19 -17 20 -145 19 -75 -1 -136 1 -136 3 0 4 22 44 96 175 26 46 61 108
78 138 44 79 215 382 226 400 34 55 220 393 220 398 0 4 -58 39 -129 78 l-129
71 -197 -351 c-109 -193 -211 -373 -226 -401 -15 -27 -86 -153 -157 -280
l-130 -230 -166 -1 c-91 -1 -166 -1 -166 0 0 1 10 26 21 56 12 30 36 96 54
145 18 50 60 167 95 260 34 94 80 220 102 280 22 61 43 119 48 130 15 36 185
502 194 531 6 20 -4 25 -116 67 -68 25 -131 48 -140 52 -11 4 -20 2 -22 -6
-14 -40 -129 -357 -136 -374 -9 -22 -36 -95 -195 -530 -58 -159 -112 -306
-119 -325 -8 -19 -35 -91 -59 -160 l-45 -125 -156 -1 c-153 -1 -156 -1 -151
20 3 12 12 66 20 121 9 55 18 111 20 125 2 14 7 45 10 70 4 25 10 63 15 85 5
22 11 63 15 90 3 28 8 57 10 65 2 8 6 33 10 55 4 32 29 186 50 314 2 13 7 45
11 70 4 25 8 55 10 66 3 11 7 36 10 55 10 61 65 394 68 416 5 23 -21 31 -174
54 -41 6 -85 13 -97 16 -18 3 -23 -1 -28 -28 -3 -18 -7 -46 -10 -63 -3 -16 -8
-48 -10 -70 -3 -22 -15 -94 -26 -160 -11 -66 -22 -131 -24 -145 -2 -14 -7 -41
-10 -60 -3 -19 -8 -46 -10 -60 -2 -14 -13 -79 -24 -145 -11 -66 -23 -142 -27
-170 -3 -27 -8 -59 -10 -70 -3 -11 -7 -36 -10 -55 -3 -19 -9 -60 -14 -90 -12
-73 -14 -85 -50 -304 -17 -105 -33 -193 -35 -197 -3 -3 -64 -6 -137 -5 l-133
1 -27 160 c-15 88 -30 180 -33 204 -3 25 -8 47 -9 50 -2 3 -6 29 -10 56 -3 28
-8 61 -10 75 -3 14 -16 97 -30 185 -15 88 -28 171 -31 185 -5 31 -26 158 -30
185 -1 11 -5 36 -9 55 -3 19 -20 123 -36 230 -17 107 -33 205 -36 218 -5 24
-7 24 -69 12z"/>
</g>
</svg>
